<?xml version="1.0" encoding="utf-8"?>
<!-- Generator: Adobe Illustrator 27.9.0, SVG Export Plug-In . SVG Version: 6.00 Build 0)  -->
<svg version="1.1" xmlns="http://www.w3.org/2000/svg" xmlns:xlink="http://www.w3.org/1999/xlink" x="0px" y="0px"
	 viewBox="0 0 512 512" style="enable-background:new 0 0 512 512;" xml:space="preserve">
<style type="text/css">
	.st0{fill:#1C47E8;}
	.st1{fill:#007FFC;}
	.st2{fill:url(#SVGID_1_);}
	.st3{fill:#FFFFFF;}
	.st4{fill-rule:evenodd;clip-rule:evenodd;fill:#0080FE;}
	.st5{fill:url(#SVGID_00000095314554323222761580000001405197652582598021_);}
	.st6{fill:none;}
</style>
<g id="Layer_1">
</g>
<g id="Layer_2">
	<g>
		<g>
			<path class="st0" d="M322.82,361.21V325h-67.35c-10.05,0.52-20.1,1.04-30.15,1.57c-3.54,0.1-6.51,0.58-8.76,1.07
				c-2.32,0.51-4.75,1.06-7.72,2.49c-1.87,0.91-4.57,2.21-7.07,4.92c-2.06,2.22-3.02,4.34-4.6,7.9c-1.68,3.8-2.55,6.82-2.81,7.69
				c0,0-2.24,6.12-6.71,18.36c-2.27,6.19-4.53,12.38-6.8,18.56c-2.02,5.53-4.05,11.07-6.07,16.6h-60.32c0,0,3.06-16.19,12.7-35.62
				c11.49-23.15,32.31-50.89,68.41-61.32c22.24-6.71,59.91-8.35,59.91-8.35h142.91L322.82,361.21z"/>
			<path class="st1" d="M398.41,298.86H255.47c0,0-37.66,1.63-59.91,8.35c-36.1,10.44-56.91,38.17-68.41,61.32
				c3.43-11.7,15.65-48.66,47.49-72.4c5.66-4.22,16.64-12.41,32.97-17.49c12.48-3.89,25.28-5.07,35.53-6.03
				c5.09-0.47,9.35-0.23,12.34-0.37l0,0l67.35,0.47v-36.19L398.41,298.86z"/>
		</g>
		<linearGradient id="SVGID_1_" gradientUnits="userSpaceOnUse" x1="62.8918" y1="619.3362" x2="366.6714" y2="47.7698">
			<stop  offset="0" style="stop-color:#FFFFFF"/>
			<stop  offset="0" style="stop-color:#1F4AE7"/>
			<stop  offset="1" style="stop-color:#0A79F5"/>
		</linearGradient>
		<path class="st2" d="M449.56,124.98l-82.64-98.86c-3.13-3.74-7.76-5.91-12.64-5.91H119.02c-33.31,0-60.41,27.1-60.41,60.41v350.75
			c0,33.31,27.1,60.41,60.41,60.41h273.97c33.31,0,60.41-27.1,60.41-60.41V135.55C453.4,131.68,452.04,127.94,449.56,124.98z
			 M436.92,431.37c0,24.27-19.67,43.94-43.94,43.94H119.02c-24.27,0-43.94-19.67-43.94-43.94V80.63c0-24.27,19.67-43.94,43.94-43.94
			h216.06v70.78c0,24.78,20.09,44.87,44.87,44.87h56.97V431.37z"/>
		<polygon class="st0" points="326.6,221.93 306.92,221.93 306.92,258.51 283.1,258.51 228.22,116.02 285.82,116.02 		"/>
		<path class="st4" d="M256.43,189.29l-27.49,70.64c-43.5,6.58-70.9,31.48-70.9,31.48l70.18-175.39L256.43,189.29z"/>
		<polygon class="st0" points="397.21,404.14 339.18,404.14 328.43,376.82 371.85,338.53 		"/>
	</g>
</g>
</svg>
